# xmcd CD database file
#
# Track frame offsets:
#	150
#	30169
#	53110
#	78209
#	117112
#	144205
#	175543
#
# Disc length: 2665 seconds
#
# Revision: 0
# Processed by: cddbd v1.5.1PL0 Copyright (c) Steve Scherf et al.
# Submitted via: CDex 1.51
#
DISCID=420a6707
DTITLE=Jerome Barde - Melodolodie
DYEAR=2003
DGENRE=Jazz
TTITLE0=Bifurq Blues
TTITLE1=Melodolodie
TTITLE2=Prelude -Come Sunday
TTITLE3=La Valse a 30 Ans
TTITLE4=Awa
TTITLE5=Digue
TTITLE6=Dazzil Jazzil
EXTD=YEAR: 2003
EXTT0=
EXTT1=
EXTT2=
EXTT3=
EXTT4=
EXTT5=
EXTT6=
PLAYORDER=
